<svg width="192" height="192" viewBox="0 0 192 192" xmlns="http://www.w3.org/2000/svg">
  <defs>
    <linearGradient id="grad1" x1="0%" y1="0%" x2="100%" y2="100%">
      <stop offset="0%" style="stop-color:#667eea;stop-opacity:1" />
      <stop offset="100%" style="stop-color:#764ba2;stop-opacity:1" />
    </linearGradient>
  </defs>
  
  <!-- 배경 원 -->
  <circle cx="96" cy="96" r="96" fill="url(#grad1)"/>
  
  <!-- 뇌 모양 -->
  <g transform="translate(96,96)">
    <!-- 뇌 왼쪽 -->
    <path d="M-40,-20 Q-50,-30 -40,-40 Q-30,-50 -20,-40 Q-10,-45 0,-40 Q10,-35 0,-25 Q-10,-15 -20,-20 Q-30,-15 -40,-20 Z" 
          fill="white" opacity="0.9"/>
    
    <!-- 뇌 오른쪽 -->
    <path d="M10,-20 Q20,-30 30,-25 Q40,-15 35,-5 Q30,5 20,0 Q10,5 0,-5 Q-5,-15 10,-20 Z" 
          fill="white" opacity="0.9"/>
    
    <!-- 뇌간 -->
    <rect x="-5" y="-5" width="10" height="30" fill="white" opacity="0.8" rx="5"/>
    
    <!-- 뇌 주름 -->
    <path d="M-35,-25 Q-25,-30 -15,-25" stroke="url(#grad1)" stroke-width="2" fill="none" opacity="0.7"/>
    <path d="M-30,-15 Q-20,-20 -10,-15" stroke="url(#grad1)" stroke-width="2" fill="none" opacity="0.7"/>
    <path d="M15,-15 Q25,-20 35,-15" stroke="url(#grad1)" stroke-width="2" fill="none" opacity="0.7"/>
    <path d="M12,-8 Q22,-12 32,-8" stroke="url(#grad1)" stroke-width="2" fill="none" opacity="0.7"/>
  </g>
  
  <!-- 텍스트 -->
  <text x="96" y="150" text-anchor="middle" fill="white" font-family="Arial" font-size="20" font-weight="bold">성격</text>
  <text x="96" y="170" text-anchor="middle" fill="white" font-family="Arial" font-size="16">테스트</text>
</svg>
